<svg width="302" height="131" viewBox="0 0 302 131" fill="none" xmlns="http://www.w3.org/2000/svg">
<path d="M29.7397 36.1248H10.2083V20.7602H29.7397V36.1248ZM3.4375 130.135H0.182277V115.552H3.69791C7.9948 115.552 10.2083 113.859 10.2083 109.302V42.7654H29.7397V106.177C29.7397 124.667 19.7136 130.135 3.4375 130.135ZM70.3673 108.961C47.884 108.961 37.5072 98.1035 37.5072 81.0009V43.625H55.5706V79.5597C55.5706 88.6875 58.1648 91.4739 70.3673 91.4739C82.5697 91.4739 85.1639 88.6875 85.1639 79.5597V43.625H103.227V81.0009C103.227 98.1035 92.8505 108.961 70.3673 108.961ZM143.908 109.302C121.903 109.302 109.793 100.708 109.793 85.6041V85.2135H129.325V86.3854C129.325 92.2447 132.971 93.8072 144.038 93.8072C154.455 93.8072 156.929 92.1145 156.929 88.2083C156.929 84.5624 154.976 83.5208 147.294 82.4791L128.934 80.2655C115.913 78.8332 108.622 72.9738 108.622 62.0363C108.622 50.578 118.387 41.4633 140.783 41.4633C162.137 41.4633 174.247 49.5363 174.247 65.4217V65.8124H154.716V65.0311C154.716 59.6926 152.111 56.9582 140.132 56.9582C130.366 56.9582 127.893 58.6509 127.893 62.8176C127.893 66.203 129.715 67.6353 138.309 68.677L152.242 70.3697C169.69 72.3228 176.2 78.1822 176.2 88.9895C176.2 101.229 164.091 109.302 143.908 109.302ZM230.044 108H213.898C198.664 108 189.419 100.839 189.419 84.4322V58.9113H179.133V42.7654H189.419V30.1352H208.95V42.7654H230.044V58.9113H208.95V82.2187C208.95 88.7291 211.424 90.4218 218.326 90.4218H230.044V108ZM280.719 108H264.573C249.339 108 240.094 100.839 240.094 84.4322V58.9113H229.807V42.7654H240.094V30.1352H259.625V42.7654H280.719V58.9113H259.625V82.2187C259.625 88.7291 262.099 90.4218 269 90.4218H280.719V108Z" fill="#1E1E1E"/>
</svg>
